<mxfile host="app.diagrams.net" modified="2024-01-01T00:00:00.000Z" agent="Claude" etag="VLF_Racer_Control_Fixed" version="22.1.16" type="device">
  <diagram name="VLF_Racer_Control" id="VLF_Racer_Control">
    <mxGraphModel dx="1422" dy="794" grid="1" gridSize="10" guides="1" tooltips="1" connect="1" arrows="1" fold="1" page="1" pageScale="1" pageWidth="1169" pageHeight="827" math="0" shadow="0">
      <root>
        <mxCell id="0"/>
        <mxCell id="1" parent="0"/>
        
        <!-- Title -->
        <mxCell id="title" value="VLF_Racer 제어 구조 다이어그램" style="text;html=1;strokeColor=none;fillColor=none;align=center;verticalAlign=middle;whiteSpace=wrap;rounded=0;fontSize=20;fontStyle=1;fontColor=#2c5282;" vertex="1" parent="1">
          <mxGeometry x="400" y="30" width="350" height="40" as="geometry"/>
        </mxCell>
        
        <!-- Hardware Components -->
        <mxCell id="arduino" value="Arduino Uno&#xa;FreeRTOS" style="rounded=1;whiteSpace=wrap;html=1;fillColor=#e3f2fd;strokeColor=#2196f3;strokeWidth=2;fontStyle=1;" vertex="1" parent="1">
          <mxGeometry x="100" y="100" width="120" height="60" as="geometry"/>
        </mxCell>
        
        <mxCell id="camera" value="TSL1401 Camera&#xa;(128 pixels)" style="rounded=1;whiteSpace=wrap;html=1;fillColor=#e3f2fd;strokeColor=#2196f3;strokeWidth=2;" vertex="1" parent="1">
          <mxGeometry x="100" y="200" width="120" height="60" as="geometry"/>
        </mxCell>
        
        <mxCell id="motor" value="DC Motor&#xa;+ Encoder" style="rounded=1;whiteSpace=wrap;html=1;fillColor=#e3f2fd;strokeColor=#2196f3;strokeWidth=2;" vertex="1" parent="1">
          <mxGeometry x="100" y="300" width="120" height="60" as="geometry"/>
        </mxCell>
        
        <mxCell id="servo" value="Servo Motor&#xa;(Steering)" style="rounded=1;whiteSpace=wrap;html=1;fillColor=#e3f2fd;strokeColor=#2196f3;strokeWidth=2;" vertex="1" parent="1">
          <mxGeometry x="100" y="400" width="120" height="60" as="geometry"/>
        </mxCell>
        
        <!-- FreeRTOS Tasks -->
        <mxCell id="taskCamera" value="TaskCamera (25Hz)&#xa;&#xa;• Read TSL1401&#xa;• Line threshold&#xa;• Find line center&#xa;• Calculate yaw angle" style="rounded=1;whiteSpace=wrap;html=1;fillColor=#f3e5f5;strokeColor=#9c27b0;strokeWidth=2;align=left;spacingLeft=10;" vertex="1" parent="1">
          <mxGeometry x="320" y="150" width="180" height="120" as="geometry"/>
        </mxCell>
        
        <mxCell id="taskSerial" value="TaskSerial (10Hz)&#xa;&#xa;• Send pixel data&#xa;• Debug output&#xa;• Monitoring" style="rounded=1;whiteSpace=wrap;html=1;fillColor=#f3e5f5;strokeColor=#9c27b0;strokeWidth=2;align=left;spacingLeft=10;" vertex="1" parent="1">
          <mxGeometry x="320" y="300" width="180" height="100" as="geometry"/>
        </mxCell>
        
        <mxCell id="taskControl" value="TaskControl (50Hz)&#xa;&#xa;• Mission logic&#xa;• Motor control&#xa;• Servo control&#xa;• Mission state mgmt" style="rounded=1;whiteSpace=wrap;html=1;fillColor=#f3e5f5;strokeColor=#9c27b0;strokeWidth=2;align=left;spacingLeft=10;" vertex="1" parent="1">
          <mxGeometry x="320" y="450" width="180" height="120" as="geometry"/>
        </mxCell>
        
        <!-- Data Structures -->
        <mxCell id="pixelData" value="Pixel[128]&#xa;PixelBuffer[128]&#xa;threshold_data[128]" style="rounded=1;whiteSpace=wrap;html=1;fillColor=#e8f5e8;strokeColor=#4caf50;strokeWidth=2;" vertex="1" parent="1">
          <mxGeometry x="580" y="150" width="150" height="80" as="geometry"/>
        </mxCell>
        
        <mxCell id="controlData" value="vision_steer_angle&#xa;steering_angle&#xa;mission_flag&#xa;encoderPos" style="rounded=1;whiteSpace=wrap;html=1;fillColor=#e8f5e8;strokeColor=#4caf50;strokeWidth=2;" vertex="1" parent="1">
          <mxGeometry x="580" y="280" width="150" height="100" as="geometry"/>
        </mxCell>
        
        <!-- Mission System -->
        <mxCell id="missions" value="Mission System&#xa;&#xa;0: start_stop&#xa;1: lane_control&#xa;2: wall_following&#xa;3: turn90&#xa;4-6: custom missions" style="rounded=1;whiteSpace=wrap;html=1;fillColor=#fff8e1;strokeColor=#ffc107;strokeWidth=2;align=left;spacingLeft=10;" vertex="1" parent="1">
          <mxGeometry x="580" y="450" width="180" height="120" as="geometry"/>
        </mxCell>
        
        <!-- Safety Systems -->
        <mxCell id="watchdog" value="Watchdog Timer&#xa;(2s timeout)" style="rounded=1;whiteSpace=wrap;html=1;fillColor=#fff3e0;strokeColor=#ff9800;strokeWidth=2;" vertex="1" parent="1">
          <mxGeometry x="820" y="100" width="120" height="60" as="geometry"/>
        </mxCell>
        
        <mxCell id="semaphores" value="Semaphores&#xa;• xSerialSemaphore&#xa;• xDataSemaphore&#xa;• xSteeringSemaphore" style="rounded=1;whiteSpace=wrap;html=1;fillColor=#fff3e0;strokeColor=#ff9800;strokeWidth=2;align=left;spacingLeft=10;" vertex="1" parent="1">
          <mxGeometry x="820" y="200" width="160" height="100" as="geometry"/>
        </mxCell>
        
        <!-- Main Connections - 정확한 연결점 지정 -->
        <!-- Camera to TaskCamera -->
        <mxCell id="edge1" style="edgeStyle=orthogonalEdgeStyle;rounded=0;orthogonalLoop=1;jettySize=auto;html=1;strokeColor=#666666;strokeWidth=2;endArrow=classic;endSize=6;exitX=1;exitY=0.5;exitDx=0;exitDy=0;entryX=0;entryY=0.3;entryDx=0;entryDy=0;" edge="1" parent="1" source="camera" target="taskCamera">
          <mxGeometry relative="1" as="geometry"/>
        </mxCell>
        
        <!-- TaskCamera to PixelData -->
        <mxCell id="edge2" style="edgeStyle=orthogonalEdgeStyle;rounded=0;orthogonalLoop=1;jettySize=auto;html=1;strokeColor=#666666;strokeWidth=2;endArrow=classic;endSize=6;exitX=1;exitY=0.3;exitDx=0;exitDy=0;entryX=0;entryY=0.5;entryDx=0;entryDy=0;" edge="1" parent="1" source="taskCamera" target="pixelData">
          <mxGeometry relative="1" as="geometry"/>
        </mxCell>
        
        <!-- TaskCamera to ControlData (조향각 계산) -->
        <mxCell id="edge3" style="edgeStyle=orthogonalEdgeStyle;rounded=0;orthogonalLoop=1;jettySize=auto;html=1;strokeColor=#666666;strokeWidth=2;endArrow=classic;endSize=6;exitX=1;exitY=0.7;exitDx=0;exitDy=0;entryX=0;entryY=0.3;entryDx=0;entryDy=0;" edge="1" parent="1" source="taskCamera" target="controlData">
          <mxGeometry relative="1" as="geometry"/>
        </mxCell>
        
        <!-- PixelData to TaskSerial -->
        <mxCell id="edge4" style="edgeStyle=orthogonalEdgeStyle;rounded=0;orthogonalLoop=1;jettySize=auto;html=1;strokeColor=#666666;strokeWidth=2;endArrow=classic;endSize=6;exitX=0;exitY=1;exitDx=0;exitDy=0;entryX=1;entryY=0.3;entryDx=0;entryDy=0;" edge="1" parent="1" source="pixelData" target="taskSerial">
          <mxGeometry relative="1" as="geometry"/>
        </mxCell>
        
        <!-- ControlData to TaskControl -->
        <mxCell id="edge5" style="edgeStyle=orthogonalEdgeStyle;rounded=0;orthogonalLoop=1;jettySize=auto;html=1;strokeColor=#666666;strokeWidth=2;endArrow=classic;endSize=6;exitX=0;exitY=0.8;exitDx=0;exitDy=0;entryX=1;entryY=0.3;entryDx=0;entryDy=0;" edge="1" parent="1" source="controlData" target="taskControl">
          <mxGeometry relative="1" as="geometry"/>
        </mxCell>
        
        <!-- TaskControl to Motor -->
        <mxCell id="edge6" style="edgeStyle=orthogonalEdgeStyle;rounded=0;orthogonalLoop=1;jettySize=auto;html=1;strokeColor=#d32f2f;strokeWidth=3;endArrow=classic;endSize=8;exitX=0;exitY=0.3;exitDx=0;exitDy=0;entryX=1;entryY=0.5;entryDx=0;entryDy=0;" edge="1" parent="1" source="taskControl" target="motor">
          <mxGeometry relative="1" as="geometry"/>
        </mxCell>
        
        <!-- TaskControl to Servo -->
        <mxCell id="edge7" style="edgeStyle=orthogonalEdgeStyle;rounded=0;orthogonalLoop=1;jettySize=auto;html=1;strokeColor=#d32f2f;strokeWidth=3;endArrow=classic;endSize=8;exitX=0;exitY=0.7;exitDx=0;exitDy=0;entryX=1;entryY=0.5;entryDx=0;entryDy=0;" edge="1" parent="1" source="taskControl" target="servo">
          <mxGeometry relative="1" as="geometry"/>
        </mxCell>
        
        <!-- Mission to TaskControl -->
        <mxCell id="edge8" style="edgeStyle=orthogonalEdgeStyle;rounded=0;orthogonalLoop=1;jettySize=auto;html=1;strokeColor=#f57c00;strokeWidth=2;endArrow=classic;endSize=6;exitX=0;exitY=0.5;exitDx=0;exitDy=0;entryX=1;entryY=0.5;entryDx=0;entryDy=0;" edge="1" parent="1" source="missions" target="taskControl">
          <mxGeometry relative="1" as="geometry"/>
        </mxCell>
        
        <!-- Motor Encoder Feedback to ControlData -->
        <mxCell id="edge9" style="edgeStyle=orthogonalEdgeStyle;rounded=0;orthogonalLoop=1;jettySize=auto;html=1;strokeColor=#ff5722;strokeWidth=2;endArrow=classic;endSize=6;dashed=1;exitX=1;exitY=0.3;exitDx=0;exitDy=0;entryX=0;entryY=0.7;entryDx=0;entryDy=0;" edge="1" parent="1" source="motor" target="controlData">
          <mxGeometry relative="1" as="geometry">
            <Array as="points">
              <mxPoint x="280" y="318"/>
              <mxPoint x="280" y="350"/>
            </Array>
          </mxGeometry>
        </mxCell>
        
        <!-- Watchdog connections to tasks (monitoring) -->
        <mxCell id="wdt1" style="edgeStyle=orthogonalEdgeStyle;rounded=0;orthogonalLoop=1;jettySize=auto;html=1;strokeColor=#ff9800;strokeWidth=1;endArrow=none;dashed=1;exitX=0;exitY=0.3;exitDx=0;exitDy=0;entryX=1;entryY=0.1;entryDx=0;entryDy=0;" edge="1" parent="1" source="watchdog" target="taskCamera">
          <mxGeometry relative="1" as="geometry"/>
        </mxCell>
        
        <mxCell id="wdt2" style="edgeStyle=orthogonalEdgeStyle;rounded=0;orthogonalLoop=1;jettySize=auto;html=1;strokeColor=#ff9800;strokeWidth=1;endArrow=none;dashed=1;exitX=0;exitY=0.7;exitDx=0;exitDy=0;entryX=1;entryY=0.1;entryDx=0;entryDy=0;" edge="1" parent="1" source="watchdog" target="taskSerial">
          <mxGeometry relative="1" as="geometry"/>
        </mxCell>
        
        <mxCell id="wdt3" style="edgeStyle=orthogonalEdgeStyle;rounded=0;orthogonalLoop=1;jettySize=auto;html=1;strokeColor=#ff9800;strokeWidth=1;endArrow=none;dashed=1;exitX=0;exitY=1;exitDx=0;exitDy=0;entryX=1;entryY=0.1;entryDx=0;entryDy=0;" edge="1" parent="1" source="watchdog" target="taskControl">
          <mxGeometry relative="1" as="geometry"/>
        </mxCell>
        
        <!-- Semaphore connections to data (protecting) -->
        <mxCell id="sem1" style="edgeStyle=orthogonalEdgeStyle;rounded=0;orthogonalLoop=1;jettySize=auto;html=1;strokeColor=#ff9800;strokeWidth=1;endArrow=none;dashed=1;exitX=0;exitY=0.3;exitDx=0;exitDy=0;entryX=1;entryY=0.1;entryDx=0;entryDy=0;" edge="1" parent="1" source="semaphores" target="pixelData">
          <mxGeometry relative="1" as="geometry"/>
        </mxCell>
        
        <mxCell id="sem2" style="edgeStyle=orthogonalEdgeStyle;rounded=0;orthogonalLoop=1;jettySize=auto;html=1;strokeColor=#ff9800;strokeWidth=1;endArrow=none;dashed=1;exitX=0;exitY=0.7;exitDx=0;exitDy=0;entryX=1;entryY=0.1;entryDx=0;entryDy=0;" edge="1" parent="1" source="semaphores" target="controlData">
          <mxGeometry relative="1" as="geometry"/>
        </mxCell>
        
        <!-- Labels for data flows -->
        <mxCell id="label1" value="픽셀 데이터" style="text;html=1;strokeColor=none;fillColor=none;align=center;verticalAlign=middle;whiteSpace=wrap;rounded=0;fontSize=10;fontColor=#666;" vertex="1" parent="1">
          <mxGeometry x="240" y="200" width="60" height="20" as="geometry"/>
        </mxCell>
        
        <mxCell id="label2" value="조향각" style="text;html=1;strokeColor=none;fillColor=none;align=center;verticalAlign=middle;whiteSpace=wrap;rounded=0;fontSize=10;fontColor=#666;" vertex="1" parent="1">
          <mxGeometry x="520" y="250" width="40" height="20" as="geometry"/>
        </mxCell>
        
        <mxCell id="label3" value="PWM 제어" style="text;html=1;strokeColor=none;fillColor=none;align=center;verticalAlign=middle;whiteSpace=wrap;rounded=0;fontSize=10;fontColor=#d32f2f;" vertex="1" parent="1">
          <mxGeometry x="240" y="360" width="60" height="20" as="geometry"/>
        </mxCell>
        
        <mxCell id="label4" value="조향 제어" style="text;html=1;strokeColor=none;fillColor=none;align=center;verticalAlign=middle;whiteSpace=wrap;rounded=0;fontSize=10;fontColor=#d32f2f;" vertex="1" parent="1">
          <mxGeometry x="240" y="480" width="60" height="20" as="geometry"/>
        </mxCell>
        
        <mxCell id="label5" value="엔코더 피드백" style="text;html=1;strokeColor=none;fillColor=none;align=center;verticalAlign=middle;whiteSpace=wrap;rounded=0;fontSize=9;fontColor=#ff5722;" vertex="1" parent="1">
          <mxGeometry x="260" y="325" width="70" height="20" as="geometry"/>
        </mxCell>
        
        <mxCell id="label6" value="미션 명령" style="text;html=1;strokeColor=none;fillColor=none;align=center;verticalAlign=middle;whiteSpace=wrap;rounded=0;fontSize=10;fontColor=#f57c00;" vertex="1" parent="1">
          <mxGeometry x="520" y="490" width="50" height="20" as="geometry"/>
        </mxCell>
        
        <!-- Legend -->
        <mxCell id="legend_title" value="범례 (Legend)" style="text;html=1;strokeColor=none;fillColor=none;align=left;verticalAlign=top;whiteSpace=wrap;rounded=0;fontSize=14;fontStyle=1;" vertex="1" parent="1">
          <mxGeometry x="100" y="620" width="120" height="30" as="geometry"/>
        </mxCell>
        
        <mxCell id="legend1" value="하드웨어" style="rounded=1;whiteSpace=wrap;html=1;fillColor=#e3f2fd;strokeColor=#2196f3;strokeWidth=2;fontSize=10;" vertex="1" parent="1">
          <mxGeometry x="100" y="650" width="70" height="30" as="geometry"/>
        </mxCell>
        
        <mxCell id="legend2" value="태스크" style="rounded=1;whiteSpace=wrap;html=1;fillColor=#f3e5f5;strokeColor=#9c27b0;strokeWidth=2;fontSize=10;" vertex="1" parent="1">
          <mxGeometry x="190" y="650" width="70" height="30" as="geometry"/>
        </mxCell>
        
        <mxCell id="legend3" value="데이터" style="rounded=1;whiteSpace=wrap;html=1;fillColor=#e8f5e8;strokeColor=#4caf50;strokeWidth=2;fontSize=10;" vertex="1" parent="1">
          <mxGeometry x="280" y="650" width="70" height="30" as="geometry"/>
        </mxCell>
        
        <mxCell id="legend4" value="안전시스템" style="rounded=1;whiteSpace=wrap;html=1;fillColor=#fff3e0;strokeColor=#ff9800;strokeWidth=2;fontSize=10;" vertex="1" parent="1">
          <mxGeometry x="370" y="650" width="70" height="30" as="geometry"/>
        </mxCell>
        
        <mxCell id="legend5" value="미션시스템" style="rounded=1;whiteSpace=wrap;html=1;fillColor=#fff8e1;strokeColor=#ffc107;strokeWidth=2;fontSize=10;" vertex="1" parent="1">
          <mxGeometry x="460" y="650" width="70" height="30" as="geometry"/>
        </mxCell>
        
      </root>
    </mxGraphModel>
  </diagram>
</mxfile>